HIERARCHY
ROOT Model_Hips
{
	OFFSET 0.000000 96.915077 0.000000
	CHANNELS 6 Xposition Yposition Zposition Xrotation Yrotation Zrotation
	JOINT Model_Spine
	{
		OFFSET 0.000000 11.137703 -1.289900
		CHANNELS 3 Xrotation Yrotation Zrotation
		JOINT Model_Spine1
		{
			OFFSET 0.000000 12.993942 -1.504922
			CHANNELS 3 Xrotation Yrotation Zrotation
			JOINT Model_Spine2
			{
				OFFSET 0.000000 14.850220 -1.719911
				CHANNELS 3 Xrotation Yrotation Zrotation
				JOINT Model_Neck
				{
					OFFSET 0.000000 16.706543 -1.934903
					CHANNELS 3 Xrotation Yrotation Zrotation
					JOINT Model_Head
					{
						OFFSET 0.000000 10.471298 2.002100
						CHANNELS 3 Xrotation Yrotation Zrotation
						JOINT Model_HeadTop_End
						{
							OFFSET 0.000000 20.842606 3.985100
							CHANNELS 3 Xrotation Yrotation Zrotation
							End Site
							{
								OFFSET 0.000000 21.220154 0.000000
							}
						}
					}
				}
				JOINT Model_LeftShoulder
				{
					OFFSET 7.008500 14.768600 -1.919946
					CHANNELS 3 Xrotation Yrotation Zrotation
					JOINT Model_LeftArm
					{
						OFFSET 14.126271 -3.718048 0.029937
						CHANNELS 3 Xrotation Yrotation Zrotation
						JOINT Model_LeftForeArm
						{
							OFFSET 28.282801 0.000000 0.000000
							CHANNELS 3 Xrotation Yrotation Zrotation
							JOINT Model_LeftHand
							{
								OFFSET 26.204689 0.000000 0.000000
								CHANNELS 3 Xrotation Yrotation Zrotation
								End Site
								{
									OFFSET 26.204704 0.000000 0.000000
								}
							}
						}
					}
				}
				JOINT Model_RightShoulder
				{
					OFFSET -7.008500 14.768555 -1.949840
					CHANNELS 3 Xrotation Yrotation Zrotation
					JOINT Model_RightArm
					{
						OFFSET -14.126281 -3.718018 -0.029932
						CHANNELS 3 Xrotation Yrotation Zrotation
						JOINT Model_RightForeArm
						{
							OFFSET -28.283798 0.000000 -0.000001
							CHANNELS 3 Xrotation Yrotation Zrotation
							JOINT Model_RightHand
							{
								OFFSET -26.204193 0.000000 -0.000001
								CHANNELS 3 Xrotation Yrotation Zrotation
								End Site
								{
									OFFSET -26.204208 0.000000 -0.000001
								}
							}
						}
					}
				}
			}
		}
	}
	JOINT Model_LeftUpLeg
	{
		OFFSET 8.327700 -6.193199 -0.402800
		CHANNELS 3 Xrotation Yrotation Zrotation
		JOINT Model_LeftLeg
		{
			OFFSET 0.735802 -42.108742 -0.610721
			CHANNELS 3 Xrotation Yrotation Zrotation
			JOINT Model_LeftFoot
			{
				OFFSET -0.735806 -36.833748 -0.172876
				CHANNELS 3 Xrotation Yrotation Zrotation
				JOINT Model_LeftToeBase
				{
					OFFSET -0.565857 -11.977769 16.297714
					CHANNELS 3 Xrotation Yrotation Zrotation
					JOINT Model_LeftToe_End
					{
						OFFSET -0.111712 -0.312793 7.857784
						CHANNELS 3 Xrotation Yrotation Zrotation
						End Site
						{
							OFFSET -0.111712 -0.312793 7.857784
						}
					}
				}
			}
		}
	}
	JOINT Model_RightUpLeg
	{
		OFFSET -8.327700 -6.193199 -0.516500
		CHANNELS 3 Xrotation Yrotation Zrotation
		JOINT Model_RightLeg
		{
			OFFSET -0.735785 -42.108738 -0.434061
			CHANNELS 3 Xrotation Yrotation Zrotation
			JOINT Model_RightFoot
			{
				OFFSET 0.735776 -36.833748 -0.021630
				CHANNELS 3 Xrotation Yrotation Zrotation
				JOINT Model_RightToeBase
				{
					OFFSET 0.565817 -11.977745 15.903093
					CHANNELS 3 Xrotation Yrotation Zrotation
					JOINT Model_RightToe_End
					{
						OFFSET 0.111702 -0.312791 7.811342
						CHANNELS 3 Xrotation Yrotation Zrotation
						End Site
						{
							OFFSET 0.111702 -0.312791 7.811342
						}
					}
				}
			}
		}
	}
}
MOTION
Frames: 13
Frame Time: 0.016667
-0.182035 85.919762 1.252781 18.244316 -5.141495 -1.172457 10.454968 3.345350 3.193139 4.537475 1.045295 1.480838 4.523172 1.097424 1.494500 3.104539 -2.285425 0.745833 3.104532 -2.285425 0.745827 0.000002 0.000000 0.000000 0.650872 -5.884801 -6.746250 37.179455 -20.889118 -53.344604 0.000004 -61.007837 -0.000002 -0.000002 0.000000 0.000000 0.422019 14.895302 11.324672 -0.646809 7.198077 54.224011 -0.000110 81.951075 0.000090 0.000000 -0.000001 -0.000001 -52.295965 4.878228 5.170950 115.010181 3.553907 -2.124654 -9.217700 -0.083364 -0.646783 5.235972 0.000003 0.000001 0.000001 -0.000000 0.000001 -19.938075 -7.202582 4.377146 46.650288 3.409809 -1.076876 -44.339372 0.864986 -3.515274 -7.700996 -0.000010 -0.000000 0.000001 0.000000 0.000000 
-0.500743 86.044403 8.568506 16.742737 -3.862609 -1.231410 9.971018 4.245490 2.270061 4.278020 1.362031 1.245034 4.259177 1.412678 1.257824 3.363525 -2.674023 1.007514 3.363489 -2.674025 1.007510 0.000000 0.000000 0.000001 0.651419 -5.526415 -6.301778 40.969811 -17.775146 -53.390452 -0.000038 -63.625828 -0.000026 0.000001 0.000000 -0.000001 0.459180 14.451634 11.015838 -0.581207 6.675234 54.197602 0.000137 87.142743 -0.000155 -0.000000 0.000001 -0.000001 -58.941302 2.989738 5.067265 112.487506 3.351981 -1.957620 -11.057900 0.497778 -1.254413 5.343149 -0.000002 0.000005 0.000001 0.000000 0.000000 -9.182597 -9.137258 4.286874 38.169447 5.264492 -1.877408 -42.775453 0.553754 -3.228156 -10.406277 0.000002 0.000001 -0.000000 -0.000000 0.000000 
-0.855950 86.798187 16.043322 14.966287 -2.251023 -1.303915 9.505561 4.868301 1.235284 3.958281 1.600440 0.927499 3.938410 1.643598 0.937277 3.527302 -3.050921 1.100747 3.527299 -3.050921 1.100746 -0.000001 -0.000000 0.000000 0.649807 -5.192396 -5.859150 45.688098 -14.853691 -52.335812 0.000023 -68.058751 0.000025 -0.000001 -0.000000 -0.000000 0.508406 13.798831 10.573742 0.773862 6.756612 54.678485 -0.001056 91.251129 0.001133 -0.000000 -0.000000 0.000001 -63.725105 2.118929 4.571451 106.582220 2.986711 -1.709593 -13.209329 2.669039 -2.262297 6.770841 -0.000002 0.000002 -0.000000 -0.000000 -0.000000 2.067720 -10.946027 4.914274 27.735889 6.721038 -2.678104 -35.899164 -0.234352 -2.407929 -15.244699 -0.000000 -0.000000 0.000001 0.000000 0.000000 
-1.223005 87.903549 23.484749 13.101032 -0.328082 -1.426433 8.996235 5.171262 0.224998 3.562924 1.759593 0.568170 3.545872 1.790124 0.572669 3.615655 -3.408929 1.074285 3.615666 -3.408929 1.074286 -0.000001 0.000000 0.000000 0.647251 -4.926918 -5.454029 50.718181 -12.461454 -50.577824 -0.000012 -73.176570 -0.000009 -0.000001 0.000000 0.000000 0.563320 12.948903 10.013427 3.014144 7.303311 55.673022 0.000231 94.021871 -0.000305 -0.000000 -0.000000 0.000003 -66.319477 2.159436 3.719016 97.778044 2.910902 -1.516180 -15.638039 5.168339 -2.723056 8.253880 -0.000009 0.000005 -0.000004 -0.000000 0.000001 11.509676 -11.701103 6.147116 19.868585 7.559746 -3.762703 -23.928980 -1.065807 -0.961404 -26.148298 -0.000001 0.000003 0.000001 0.000000 0.000000 
-1.591923 88.958275 30.925325 11.315718 1.741475 -1.669161 8.377707 5.212221 -0.603270 3.057416 1.847883 0.217033 3.045706 1.863081 0.213455 3.611153 -3.733436 0.919599 3.611113 -3.733441 0.919597 0.000003 0.000000 -0.000000 0.644443 -4.732955 -5.120324 55.462830 -10.764275 -48.583603 -0.000017 -78.076289 -0.000011 -0.000000 -0.000000 -0.000000 0.613666 11.983144 9.396118 5.874693 7.995280 57.085007 0.000018 95.391843 -0.000046 -0.000001 0.000000 -0.000000 -66.730470 2.691763 2.727527 86.996516 2.895377 -1.479777 -18.576801 6.766027 -3.030345 8.873211 -0.000002 -0.000002 0.000000 0.000001 0.000000 13.613397 -11.709377 6.771162 24.126670 8.788730 -5.248113 -9.355556 -0.967171 0.829343 -33.842255 0.638318 -3.120113 0.000000 -0.000000 0.000000 
-1.876495 89.680641 38.406677 9.702630 3.693533 -2.001861 7.640361 5.108027 -1.210875 2.425856 1.879124 -0.067277 2.419816 1.879700 -0.082001 3.515753 -4.009584 0.664763 3.515807 -4.009587 0.664764 0.000000 -0.000000 -0.000000 0.640992 -4.585044 -4.886901 59.408316 -9.743696 -46.819389 -0.000006 -82.283091 -0.000017 -0.000001 0.000000 -0.000000 0.649766 11.061247 8.833029 9.221090 8.469791 58.656831 -0.000107 95.491147 0.000097 0.000003 -0.000002 -0.000002 -65.278283 3.382269 1.768172 75.249908 2.655547 -1.694852 -22.089248 7.132465 -4.291762 8.482257 0.000007 -0.000001 -0.000001 0.000001 0.000000 13.356527 -10.972771 6.336606 29.889075 8.237428 -6.647032 7.276818 0.391252 12.061566 -41.002339 6.078658 -11.576563 -0.000001 0.000000 0.000000 
-2.038200 89.885048 45.994602 8.103867 5.293532 -2.356372 6.848476 4.971818 -1.599570 1.645664 1.868459 -0.241412 1.643896 1.857278 -0.271348 3.353317 -4.225016 0.372935 3.353306 -4.225020 0.372936 -0.000001 -0.000000 0.000000 0.636653 -4.464826 -4.778989 62.547389 -8.766249 -45.676012 -0.000108 -86.388560 -0.000018 -0.000000 -0.000000 0.000000 0.668645 10.365027 8.441061 13.303673 8.277003 60.033470 -0.000029 95.144761 -0.000011 -0.000001 0.000000 -0.000001 -62.397473 6.157097 1.880984 63.771311 0.200335 -1.624246 -25.913258 6.630066 -6.041259 7.417037 0.000006 -0.000003 -0.000002 0.000002 -0.000001 16.546716 -9.790278 7.480812 31.317234 7.992823 -7.300640 17.036737 2.935263 12.567534 -20.727087 4.387998 -15.323113 -0.000001 0.000000 0.000000 
-2.038943 89.784081 53.469337 6.626069 6.390733 -2.754285 6.125894 4.862156 -1.711110 0.915458 1.828930 -0.272059 0.915069 1.812599 -0.315585 3.162103 -4.371710 0.126150 3.162110 -4.371712 0.126152 -0.000000 -0.000000 -0.000000 0.631876 -4.372024 -4.806643 63.947858 -8.017359 -45.411565 0.007378 -89.834241 0.009439 -0.000001 0.000002 -0.000001 0.673886 10.018002 8.283346 17.572099 7.527207 60.949391 -0.000047 94.171418 -0.000001 -0.000000 0.000001 0.000000 -58.615946 8.371980 1.762866 53.369292 -1.931563 -1.912259 -28.343526 6.083174 -9.021624 5.889594 -0.000007 -0.000005 -0.000003 0.000001 0.000000 16.086120 -8.803139 7.941662 38.777200 8.908984 -7.523422 20.761516 3.754290 12.515032 -0.330105 0.000072 -0.063117 0.000001 0.000001 0.000001 
-1.888520 89.463234 60.736267 5.214787 6.949426 -3.094203 5.635551 4.763629 -1.633336 0.414943 1.772367 -0.173147 0.413078 1.758784 -0.224533 2.980828 -4.446280 -0.000765 2.980825 -4.446276 -0.000765 0.000001 0.000000 0.000000 0.627143 -4.301661 -4.941066 63.166744 -7.447684 -45.992902 -0.000295 -92.657281 -0.000502 0.000000 0.000001 0.000001 0.670420 10.040020 8.345425 21.565870 6.342337 61.242638 -0.000475 92.678420 0.000401 -0.000002 -0.000000 0.000002 -56.315637 8.568307 1.155293 49.311859 -1.854238 -2.091989 -30.749320 5.651765 -12.289817 3.668083 -0.000002 -0.000004 -0.000001 -0.000001 0.000001 13.366028 -8.341061 7.661750 49.054395 9.323936 -7.353100 20.390524 4.032250 12.293741 1.030954 0.000002 0.000002 0.000000 0.000000 0.000001 
-1.601761 89.079491 67.666489 3.786913 6.975483 -3.255627 5.504718 4.671357 -1.497472 0.271112 1.708203 0.001487 0.265742 1.703636 -0.050019 2.834856 -4.449204 0.033535 2.834852 -4.449203 0.033537 -0.000000 0.000000 0.000001 0.622028 -4.224051 -5.113573 60.130506 -7.174234 -47.121482 0.000082 -94.801899 -0.000086 0.000001 0.000001 0.000001 0.661301 10.349265 8.553682 24.832913 4.974698 60.886348 -0.000474 90.619740 -0.000001 -0.000002 -0.000002 -0.000000 -52.598696 8.468636 0.219675 45.020731 -0.512576 -1.753896 -28.853369 4.224006 -13.940730 0.425574 0.000017 -0.000005 -0.000001 0.000001 -0.000001 9.252980 -8.912234 6.083722 59.951070 9.549463 -6.806072 17.804235 3.394035 12.221180 -0.473062 -0.000004 -0.000001 0.000000 0.000000 -0.000000 
-1.185182 88.608032 74.292137 2.234951 6.576523 -3.055359 5.774898 4.524784 -1.520188 0.479040 1.638463 0.162699 0.469726 1.644995 0.117521 2.730690 -4.384114 0.221302 2.730710 -4.384119 0.221304 0.000001 0.000000 0.000000 0.615751 -4.102206 -5.249956 55.443576 -7.172112 -48.318411 0.000008 -96.488901 -0.000080 0.000002 -0.000001 0.000001 0.648746 10.801279 8.813562 27.296940 3.640618 59.978152 0.000411 88.215035 -0.000193 0.000002 -0.000002 0.000001 -49.378456 8.556981 -1.924209 43.661725 0.339475 -0.606010 -23.589850 1.446802 -6.086543 -3.353943 -0.000001 -0.000004 -0.000001 0.000001 -0.000001 3.966191 -9.790347 3.227287 70.624429 9.428922 -6.210513 13.953166 1.279265 12.671535 -3.062519 -0.000003 0.000001 0.000000 0.000000 -0.000000 
-0.688897 87.761574 80.865280 0.504908 5.825118 -2.641162 6.357634 4.371074 -1.638099 0.912487 1.552039 0.207725 0.900770 1.567180 0.171949 2.661660 -4.257965 0.507763 2.661641 -4.257969 0.507761 0.000000 0.000001 -0.000000 0.608616 -3.939069 -5.319121 50.189152 -7.122173 -49.023594 -0.000018 -98.383527 -0.000013 -0.000002 -0.000000 0.000000 0.635565 11.250277 9.047716 29.292161 2.385332 58.738404 0.000140 86.161047 -0.000103 -0.000003 0.000000 0.000001 -45.562850 8.649038 -4.657487 43.687792 2.446526 0.260764 -16.609791 -1.177719 8.577849 -5.827754 0.000004 0.000003 -0.000001 0.000000 -0.000001 -2.025881 -10.274543 -0.345369 80.414597 6.393542 -5.626052 8.967209 0.551555 12.238271 -5.175517 -0.000002 -0.000001 -0.000001 0.000000 -0.000000 
-0.267035 86.838737 87.216995 -1.019840 4.942436 -1.935497 7.108557 4.082437 -2.006468 1.526144 1.425688 0.099064 1.514127 1.446374 0.075539 2.620606 -4.082003 0.810718 2.620611 -4.082004 0.810722 -0.000001 -0.000000 -0.000000 0.603018 -3.808587 -5.360645 44.576004 -7.434413 -48.867070 0.000005 -99.707716 -0.000045 -0.000001 -0.000005 0.000002 0.624588 11.602033 9.215979 30.331863 1.505291 57.322294 0.000074 84.004524 -0.000001 0.000003 -0.000000 0.000001 -42.900176 6.563562 -5.771028 46.844788 6.099239 0.232002 -9.968279 -0.947357 9.789290 -5.485533 -0.000002 -0.000004 0.000000 -0.000001 -0.000000 -9.006957 -10.149922 -3.632443 88.759626 2.801020 -5.742462 3.909218 -0.061078 10.964429 -6.000409 -0.000000 -0.000001 -0.000001 -0.000000 0.000001 
